<?xml version="1.0" encoding="utf-8"?>
<!-- Generator: Adobe Illustrator 23.0.2, SVG Export Plug-In . SVG Version: 6.00 Build 0)  -->
<svg version="1.1" id="Layer_1" xmlns="http://www.w3.org/2000/svg" xmlns:xlink="http://www.w3.org/1999/xlink" x="0px" y="0px"
	 viewBox="0 0 255.1 255.1" style="enable-background:new 0 0 255.1 255.1;" xml:space="preserve">
<style type="text/css">
	.st0{fill:#00A12F;}
	.st1{fill:#FFFFFF;}
</style>
<g>
	<path class="st0" d="M248.8,128.3c0,16.9-1.5,31.4-4.5,43.6c-3,12.2-7.2,22.4-12.7,30.8c-5.4,8.4-11.9,15-19.4,20
		c-7.5,5-15.7,8.8-24.6,11.6c-8.9,2.8-18.4,4.6-28.5,5.4c-10.1,0.9-20.4,1.3-31,1.3h-0.9c-10.6,0-20.9-0.4-31-1.3
		c-10.1-0.9-19.6-2.7-28.5-5.4c-8.9-2.8-17.1-6.6-24.6-11.6c-7.5-5-14-11.6-19.4-20c-5.4-8.4-9.7-18.6-12.7-30.8
		c-3-12.2-4.5-26.7-4.5-43.6v-1.4c0-16.9,1.5-31.4,4.5-43.6c3-12.1,7.2-22.4,12.7-30.8c5.4-8.4,11.9-15,19.4-20
		c7.5-5,15.7-8.8,24.6-11.6c8.9-2.8,18.4-4.6,28.5-5.4c10.1-0.9,20.4-1.3,31-1.3h0.9c10.6,0,20.9,0.4,31,1.3
		c10.1,0.9,19.6,2.7,28.5,5.4c8.9,2.8,17.1,6.6,24.6,11.6c7.5,5,14,11.6,19.4,20c5.4,8.4,9.7,18.6,12.7,30.8
		c3,12.2,4.5,26.7,4.5,43.6V128.3z"/>
</g>
<g>
	<path class="st1" d="M55.3,120.5v10.1c0,6.4-2.9,8.8-9.5,8.8h-6.9c-7.5,0-12-2-12-9.2c0-7.2,4.6-9.2,12-9.2h7.9v-0.5
		c0-3.4-2.7-4.8-7.1-4.8c-2.2,0-5,0.4-7.9,0.9c-1.9,0.4-3.1-0.5-3.1-2.5V113c0-1.7,0.9-2.8,2.9-3.2c3.3-0.7,6.6-1.1,9.3-1.1
		C49.2,108.8,55.3,112.3,55.3,120.5z M46.8,130.2v-3.1h-7.5c-3.7,0-4.5,0.9-4.5,3.1c0,2.2,0.8,3.1,4.4,3.1h4.5
		C46.3,133.3,46.8,132.2,46.8,130.2z"/>
	<path class="st1" d="M67,96.6h3c1.8,0,2.8,1,2.8,2.8v37.2c0,1.8-1,2.8-2.8,2.8h-3c-1.8,0-2.8-1-2.8-2.8V99.4
		C64.2,97.6,65.2,96.6,67,96.6z"/>
	<path class="st1" d="M108.3,109.3h3.1c2,0,3,1.3,2.3,3.2l-6.1,18.6c-2.2,6.8-4.4,8.8-10.1,8.8c-5.7,0-7.9-2.1-10.1-8.8l-6.1-18.6
		c-0.6-2,0.3-3.2,2.3-3.2h3.1c1.7,0,2.7,0.8,3.1,2.4l5.2,17.6c0.8,2.6,1.5,2.9,2.4,2.9c1,0,1.7-0.3,2.4-2.9l5.2-17.6
		C105.6,110.1,106.6,109.3,108.3,109.3z"/>
	<path class="st1" d="M148.1,120.5v10.1c0,6.4-2.9,8.8-9.5,8.8h-6.9c-7.5,0-12-2-12-9.2c0-7.2,4.6-9.2,12-9.2h7.9v-0.5
		c0-3.4-2.7-4.8-7.1-4.8c-2.2,0-5,0.4-7.9,0.9c-1.9,0.4-3.1-0.5-3.1-2.5V113c0-1.7,0.9-2.8,2.9-3.2c3.3-0.7,6.6-1.1,9.3-1.1
		C142,108.8,148.1,112.3,148.1,120.5z M139.6,130.2v-3.1h-7.5c-3.7,0-4.5,0.9-4.5,3.1c0,2.2,0.8,3.1,4.4,3.1h4.5
		C139.2,133.3,139.6,132.2,139.6,130.2z"/>
	<path class="st1" d="M186.4,122.9v13.6c0,1.8-1,2.8-2.8,2.8h-2.9c-1.8,0-2.8-1-2.8-2.8v-13.8c0-5.4-2-6.9-6.5-6.9
		c-4.6,0-6.5,1.5-6.5,6.9v13.8c0,1.8-1,2.8-2.8,2.8h-2.9c-1.8,0-2.8-1-2.8-2.8v-13.6c0-11,5.5-14.2,15-14.2S186.4,112,186.4,122.9z"
		/>
	<path class="st1" d="M211.6,116.3h-8.3v12c0,3.1,1.4,4.4,4.7,4.4c1.6,0,2.7-0.3,3.7-0.3c1.9,0,2.6,0.7,2.6,2.2v1.5
		c0,1.6-0.7,2.7-2.3,3c-9.7,2.3-17.5-0.2-17.5-10.9v-23.1c0-1.8,1-2.8,2.8-2.8h3c1.8,0,2.8,1,2.8,2.8v4.2h8.3c1.8,0,2.8,1,2.8,2.8
		v1.3C214.4,115.3,213.4,116.3,211.6,116.3z"/>
	<path class="st1" d="M220.4,134.9c0-3,1.7-4.7,4.7-4.7c3,0,4.7,1.8,4.7,4.7c0,2.9-1.7,4.7-4.7,4.7
		C222.1,139.6,220.4,137.9,220.4,134.9z"/>
</g>
<g>
	<path class="st1" d="M53.6,164.3v-11c0-0.3,0.1-0.4,0.4-0.4h0.1c0.3,0,0.4,0.1,0.4,0.4v11c0,0.3-0.1,0.4-0.4,0.4H54
		C53.8,164.7,53.6,164.6,53.6,164.3z"/>
	<path class="st1" d="M68.7,153.3L68.7,153.3c0,0.3-0.1,0.5-0.4,0.5h-3.9v10.6c0,0.3-0.1,0.4-0.4,0.4h-0.1c-0.3,0-0.4-0.1-0.4-0.4
		v-10.6h-3.9c-0.3,0-0.4-0.1-0.4-0.4v-0.1c0-0.3,0.1-0.4,0.4-0.4h8.8C68.6,152.9,68.7,153,68.7,153.3z"/>
	<path class="st1" d="M78.9,153.5c0-0.4,0.2-0.7,0.6-0.7s0.6,0.3,0.6,0.7s-0.2,0.6-0.6,0.6S78.9,153.9,78.9,153.5z M79.1,164.3v-8
		c0-0.3,0.1-0.4,0.4-0.4h0.1c0.3,0,0.4,0.1,0.4,0.4v8c0,0.3-0.1,0.4-0.4,0.4h-0.1C79.2,164.7,79.1,164.6,79.1,164.3z"/>
	<path class="st1" d="M84.4,163.9L84.4,163.9c0-0.3,0.2-0.4,0.5-0.3c2.5,0.7,5.2,0.6,5.2-1.2c0-0.8-0.5-1.3-1.9-1.7l-1.7-0.5
		c-1.5-0.4-2.2-1.2-2.2-2.2c0-2.2,2.9-2.7,5.7-1.9c0.2,0.1,0.3,0.2,0.3,0.5c0,0.3-0.2,0.4-0.5,0.3c-2.1-0.6-4.7-0.4-4.7,1.1
		c0,0.7,0.5,1.2,1.5,1.4l1.7,0.5c1.8,0.5,2.5,1.3,2.5,2.5c0,2.5-3.4,2.9-6.2,2C84.5,164.3,84.4,164.2,84.4,163.9z"/>
	<path class="st1" d="M101.5,160.3c0-2.9,1.4-4.6,4-4.6s4,1.7,4,4.6c0,2.9-1.5,4.6-4,4.6S101.5,163.2,101.5,160.3z M108.5,160.3
		c0-2.4-1.1-3.7-3.1-3.7c-2,0-3.1,1.3-3.1,3.7c0,2.4,1.1,3.7,3.1,3.7C107.4,164,108.5,162.7,108.5,160.3z"/>
	<path class="st1" d="M121.1,155.9L121.1,155.9c0.3,0,0.5,0.1,0.5,0.4v4.4c0,3.2-1.3,4.2-3.9,4.2c-2.5,0-3.9-1-3.9-4.2v-4.4
		c0-0.3,0.1-0.4,0.4-0.4h0.1c0.3,0,0.4,0.1,0.4,0.4v4.4c0,2.6,0.9,3.4,3,3.4c2.1,0,3-0.8,3-3.4v-4.4
		C120.7,156.1,120.9,155.9,121.1,155.9z"/>
	<path class="st1" d="M130.6,156.2L130.6,156.2c0,0.3-0.2,0.4-0.4,0.4c-2.8,0-3,0.3-3,1.2v6.4c0,0.3-0.1,0.4-0.4,0.4h-0.1
		c-0.3,0-0.4-0.1-0.4-0.4v-6.5c0-1.4,0.5-2,3.9-2C130.4,155.8,130.6,156,130.6,156.2z"/>
	<path class="st1" d="M148.6,160v4.4c0,0.3-0.1,0.4-0.4,0.4h-0.1c-0.3,0-0.4-0.1-0.4-0.4V160c0-2.6-0.9-3.4-3-3.4
		c-2.1,0-3,0.8-3,3.4v4.4c0,0.3-0.1,0.4-0.4,0.4h-0.1c-0.3,0-0.4-0.1-0.4-0.4V160c0-3.2,1.3-4.2,3.9-4.2
		C147.3,155.8,148.6,156.8,148.6,160z"/>
	<path class="st1" d="M160.1,159v3.2c0,1.6-0.6,2.5-2.6,2.5h-1.6c-1.9,0-3-0.6-3-2.5s1.1-2.5,3-2.5h3.3V159c0-1.6-1.1-2.4-2.8-2.4
		c-0.8,0-1.7,0.1-2.6,0.4c-0.3,0.1-0.5,0-0.5-0.3v-0.1c0-0.2,0.1-0.4,0.4-0.5c1-0.3,1.9-0.4,2.7-0.4
		C158.6,155.8,160.1,156.8,160.1,159z M159.2,162.2v-1.7h-3.3c-1.5,0-2.1,0.5-2.1,1.7c0,1.2,0.6,1.7,2.1,1.7h1.5
		C158.9,163.9,159.2,163.2,159.2,162.2z"/>
	<path class="st1" d="M169.1,156.7h-3.4v5c0,1.6,0.8,2.3,2.1,2.3c0.8,0,1.2-0.2,1.4-0.2c0.3,0,0.4,0.1,0.4,0.3v0.1
		c0,0.2-0.1,0.3-0.3,0.4c-2.4,0.7-4.4,0-4.4-2.9v-7.6c0-0.3,0.1-0.4,0.4-0.4h0.1c0.3,0,0.4,0.1,0.4,0.4v1.7h3.4
		c0.3,0,0.4,0.1,0.4,0.4v0C169.5,156.6,169.4,156.7,169.1,156.7z"/>
	<path class="st1" d="M180.6,155.9L180.6,155.9c0.3,0,0.5,0.1,0.5,0.4v4.4c0,3.2-1.3,4.2-3.9,4.2c-2.5,0-3.9-1-3.9-4.2v-4.4
		c0-0.3,0.1-0.4,0.4-0.4h0.1c0.3,0,0.4,0.1,0.4,0.4v4.4c0,2.6,0.9,3.4,3,3.4c2.1,0,3-0.8,3-3.4v-4.4
		C180.2,156.1,180.3,155.9,180.6,155.9z"/>
	<path class="st1" d="M190,156.2L190,156.2c0,0.3-0.2,0.4-0.4,0.4c-2.8,0-3,0.3-3,1.2v6.4c0,0.3-0.1,0.4-0.4,0.4h-0.1
		c-0.3,0-0.4-0.1-0.4-0.4v-6.5c0-1.4,0.5-2,3.9-2C189.9,155.8,190,156,190,156.2z"/>
	<path class="st1" d="M198.9,160.6l-4.5,0.5c0.2,2,1.5,3,3.3,3c0.6,0,1.4-0.1,2.2-0.4c0.3-0.1,0.5,0,0.5,0.2v0.1
		c0,0.2-0.1,0.4-0.3,0.5c-0.8,0.3-1.7,0.4-2.4,0.4c-2.5,0-4.1-1.6-4.1-4.6c0-2.9,1.4-4.6,4-4.6c2.2,0,3.5,1.2,3.5,3
		C201,159.9,200.5,160.4,198.9,160.6z M198.7,159.8c1.1-0.1,1.4-0.4,1.4-1.1c0-1.2-0.9-2.2-2.7-2.2c-2,0-3.1,1.3-3.1,3.7
		L198.7,159.8z"/>
</g>
</svg>
