<?xml version="1.0" encoding="utf-8"?>
<!-- Generator: Adobe Illustrator 23.0.2, SVG Export Plug-In . SVG Version: 6.00 Build 0)  -->
<svg version="1.1" id="Layer_1" xmlns="http://www.w3.org/2000/svg" xmlns:xlink="http://www.w3.org/1999/xlink" x="0px" y="0px"
	 viewBox="0 0 244.4 228.8" style="enable-background:new 0 0 244.4 228.8;" xml:space="preserve">
<g>
	<path fill="#FFFFFF" d="M122.7,228.8h-0.9c-10.6,0-21-0.4-31.1-1.3c-10.1-0.9-19.8-2.7-28.7-5.5c-9-2.8-17.3-6.7-24.9-11.7
		c-7.6-5-14.2-11.9-19.7-20.3c-5.5-8.4-9.8-18.9-12.8-31.1C1.5,146.7,0,132,0,115.1v-1.4c0-16.9,1.5-31.6,4.5-43.8
		c3-12.2,7.3-22.7,12.8-31.1c5.5-8.4,12.1-15.3,19.7-20.3c7.5-5,15.9-8.9,24.9-11.7c9-2.8,18.6-4.6,28.7-5.5
		C100.8,0.4,111.2,0,121.7,0h0.9c10.5,0,21,0.4,31.1,1.3c10.1,0.9,19.8,2.7,28.7,5.5c9,2.8,17.3,6.7,24.9,11.7
		c7.6,5,14.2,11.8,19.7,20.3c5.5,8.4,9.8,18.9,12.8,31.1c3,12.2,4.5,26.9,4.5,43.8v1.4c0,16.9-1.5,31.6-4.5,43.8
		c-3,12.2-7.3,22.7-12.8,31.1c-5.5,8.4-12.1,15.3-19.7,20.3c-7.5,5-15.9,8.9-24.9,11.7c-8.9,2.8-18.6,4.6-28.7,5.5
		C143.7,228.4,133.3,228.8,122.7,228.8z M121.7,2c-10.5,0-20.9,0.4-30.9,1.3C80.9,4.2,71.3,6,62.5,8.7c-8.8,2.7-17,6.6-24.4,11.5
		C30.8,25.1,24.4,31.7,19,39.9c-5.4,8.2-9.6,18.5-12.5,30.5C3.5,82.4,2,97,2,113.7v1.4c0,16.7,1.5,31.3,4.5,43.3
		c3,12,7.2,22.2,12.5,30.5c5.3,8.2,11.8,14.8,19.1,19.7c7.4,4.9,15.6,8.8,24.4,11.5c8.8,2.7,18.3,4.5,28.3,5.4
		c10,0.9,20.4,1.3,30.9,1.3h0.9c10.5,0,20.9-0.4,30.9-1.3c10-0.9,19.5-2.7,28.3-5.4c8.8-2.7,17-6.6,24.4-11.5
		c7.3-4.9,13.8-11.5,19.1-19.7c5.4-8.2,9.6-18.5,12.5-30.5c3-12,4.5-26.6,4.5-43.3v-1.4c0-16.7-1.5-31.3-4.5-43.3
		c-3-12-7.2-22.2-12.5-30.5c-5.3-8.2-11.8-14.8-19.1-19.7c-7.4-4.9-15.6-8.8-24.4-11.5c-8.8-2.7-18.3-4.5-28.3-5.4
		C143.5,2.5,133.1,2,122.7,2H121.7z"/>
</g>
<g>
	<path fill="#FFFFFF" d="M49.9,107.4v10.1c0,6.4-2.9,8.8-9.5,8.8h-6.9c-7.5,0-12-2-12-9.2c0-7.2,4.6-9.2,12-9.2h7.9v-0.5c0-3.4-2.7-4.8-7.1-4.8
		c-2.2,0-5,0.4-7.9,0.9c-1.9,0.4-3.1-0.5-3.1-2.5v-1.1c0-1.7,0.9-2.8,2.9-3.2c3.3-0.7,6.6-1.1,9.3-1.1
		C43.8,95.6,49.9,99.1,49.9,107.4z M41.4,117v-3.1h-7.5c-3.7,0-4.5,0.9-4.5,3.1c0,2.2,0.8,3.1,4.4,3.1h4.5
		C41,120.1,41.4,119.1,41.4,117z"/>
	<path fill="#FFFFFF" d="M61.7,83.4h3c1.8,0,2.8,1,2.8,2.8v37.2c0,1.8-1,2.8-2.8,2.8h-3c-1.8,0-2.8-1-2.8-2.8V86.2C58.9,84.4,59.9,83.4,61.7,83.4z"
		/>
	<path fill="#FFFFFF" d="M102.9,96.2h3.1c2,0,3,1.3,2.3,3.2l-6.1,18.6c-2.2,6.8-4.4,8.8-10.1,8.8c-5.7,0-7.9-2.1-10.1-8.8l-6.1-18.6
		c-0.6-2,0.3-3.2,2.3-3.2h3.1c1.7,0,2.7,0.8,3.1,2.4l5.2,17.6c0.8,2.6,1.5,2.9,2.4,2.9c1,0,1.7-0.3,2.4-2.9l5.2-17.6
		C100.2,96.9,101.3,96.2,102.9,96.2z"/>
	<path fill="#FFFFFF" d="M142.8,107.4v10.1c0,6.4-2.9,8.8-9.5,8.8h-6.9c-7.5,0-12-2-12-9.2c0-7.2,4.6-9.2,12-9.2h7.9v-0.5c0-3.4-2.7-4.8-7.1-4.8
		c-2.2,0-5,0.4-7.9,0.9c-1.9,0.4-3.1-0.5-3.1-2.5v-1.1c0-1.7,0.9-2.8,2.9-3.2c3.3-0.7,6.6-1.1,9.3-1.1
		C136.7,95.6,142.8,99.1,142.8,107.4z M134.3,117v-3.1h-7.5c-3.7,0-4.5,0.9-4.5,3.1c0,2.2,0.8,3.1,4.4,3.1h4.5
		C133.9,120.1,134.3,119.1,134.3,117z"/>
	<path fill="#FFFFFF" d="M181.1,109.8v13.6c0,1.8-1,2.8-2.8,2.8h-2.9c-1.8,0-2.8-1-2.8-2.8v-13.8c0-5.4-2-6.9-6.5-6.9c-4.6,0-6.5,1.5-6.5,6.9v13.8
		c0,1.8-1,2.8-2.8,2.8h-2.9c-1.8,0-2.8-1-2.8-2.8v-13.6c0-11,5.5-14.2,15-14.2S181.1,98.8,181.1,109.8z"/>
	<path fill="#FFFFFF" d="M206.2,103.2h-8.3v12c0,3.1,1.4,4.4,4.7,4.4c1.6,0,2.7-0.3,3.7-0.3c1.9,0,2.6,0.7,2.6,2.2v1.5c0,1.6-0.7,2.7-2.3,3
		c-9.7,2.3-17.5-0.2-17.5-10.9V92c0-1.8,1-2.8,2.8-2.8h3c1.8,0,2.8,1,2.8,2.8v4.2h8.3c1.8,0,2.8,1,2.8,2.8v1.3
		C209,102.1,208,103.2,206.2,103.2z"/>
	<path fill="#FFFFFF" d="M215,121.8c0-3,1.7-4.7,4.7-4.7c3,0,4.7,1.8,4.7,4.7c0,2.9-1.7,4.7-4.7,4.7C216.7,126.5,215,124.7,215,121.8z"/>
</g>
</svg>
